<?xml version="1.0" standalone="no"?>
<!DOCTYPE svg PUBLIC "-//W3C//DTD SVG 20010904//EN"
 "http://www.w3.org/TR/2001/REC-SVG-20010904/DTD/svg10.dtd">
<svg version="1.0" xmlns="http://www.w3.org/2000/svg"
 width="512.000000pt" height="512.000000pt" viewBox="0 0 512.000000 512.000000"
 preserveAspectRatio="xMidYMid meet">

<g transform="translate(0.000000,512.000000) scale(0.100000,-0.100000)"
fill="#000000" stroke="none">
<path d="M583 4579 c-246 -41 -461 -231 -550 -484 l-28 -80 0 -1450 0 -1450
23 -75 c71 -224 229 -392 452 -477 l75 -28 2005 0 2005 0 75 28 c220 84 376
247 452 472 l23 70 3 1405 c2 1034 0 1425 -9 1480 -40 263 -221 475 -484 567
l-80 28 -1955 1 c-1075 1 -1978 -2 -2007 -7z m3998 -166 c121 -42 227 -125
301 -237 58 -89 80 -169 86 -313 l4 -123 -189 0 c-176 0 -192 -2 -216 -20 -14
-11 -29 -29 -32 -40 -6 -18 -15 -20 -83 -20 -77 0 -78 0 -89 30 -6 17 -23 34
-38 40 -17 7 -729 10 -2101 10 l-2074 0 0 93 c0 115 21 213 62 297 43 88 160
205 248 248 130 64 8 61 2125 59 l1930 -2 66 -22z m-1827 -1534 c15 -12 26
-30 26 -44 0 -31 -297 -1403 -310 -1433 -23 -52 -104 -46 -124 9 -7 21 23 176
139 710 81 376 152 698 157 716 9 34 41 63 69 63 9 0 28 -9 43 -21z m-842
-236 c50 -59 34 -80 -232 -286 -222 -172 -235 -184 -238 -218 -2 -23 3 -43 15
-56 10 -11 118 -97 240 -192 122 -94 227 -180 233 -191 23 -42 -15 -100 -65
-100 -22 0 -49 13 -89 45 -63 48 -88 54 -124 29 -22 -15 -26 -14 -80 29 -55
43 -57 46 -54 86 2 24 -2 48 -9 57 -7 9 -80 67 -161 131 l-149 115 3 42 c3 40
6 44 148 154 449 349 481 372 514 372 19 0 39 -7 48 -17z m1545 -113 c460
-354 458 -352 461 -390 2 -19 -3 -43 -10 -52 -7 -9 -150 -123 -317 -252 -251
-194 -310 -236 -336 -236 -50 0 -88 58 -65 100 6 11 111 97 233 191 122 94
230 181 240 192 12 13 17 33 15 56 -3 33 -16 46 -238 218 -229 178 -266 215
-252 253 11 31 36 50 68 50 26 0 64 -24 201 -130z"/>
<path d="M670 4294 c-109 -47 -164 -185 -118 -295 32 -73 130 -139 208 -139
50 0 119 31 160 72 111 111 73 302 -72 362 -47 20 -132 20 -178 0z m137 -156
c46 -43 16 -118 -47 -118 -62 0 -92 71 -48 117 27 29 65 29 95 1z"/>
<path d="M1220 4294 c-80 -35 -132 -114 -133 -203 -2 -218 284 -312 405 -134
81 118 43 268 -84 334 -45 23 -138 25 -188 3z m140 -154 c24 -24 26 -77 3
-102 -24 -27 -87 -24 -107 4 -36 51 -5 118 54 118 17 0 39 -9 50 -20z"/>
<path d="M1770 4294 c-81 -35 -132 -114 -132 -204 0 -178 194 -286 344 -191
80 51 120 149 98 240 -14 58 -65 123 -121 151 -47 24 -138 26 -189 4z m134
-155 c50 -40 21 -119 -44 -119 -35 0 -70 34 -70 67 0 29 42 73 68 73 11 0 31
-9 46 -21z"/>
</g>
</svg>
